# xmcd
#
# Track frame offsets:
#	150
#	17719
#	32566
#	44446
#	57232
#	72920
#	109849
#	127500
#	143876
#	159301
#	175578
#	190584
#	211310
#	226704
#	240611
#	254495
#	268836
#	284452
#	298715
#	311688
#
# Disc length: 4384 seconds
#
# Revision: 1
# Processed by: cddbd v1.5.2PL0 Copyright (c) Steve Scherf et al.
# Submitted via: audiograbber 1.83.01
#
DISCID=1a111e14
DTITLE=Various Artist - History Of Dance 4 The Ibiza Edition -CD2
DYEAR=2006
DGENRE=Dance
TTITLE0=Freestylers - Push Up 
TTITLE1=Tim Deluxe - It Just Won't Do 
TTITLE2=Gusto - Disco's Revenge Track  3
TTITLE3=Inaya Day - Nasty Girl 
TTITLE4=Gala - Freed Form Desire 
TTITLE5=Dr. Kucho - Lies To Yourself 
TTITLE6=David Morales Pres. The Face - Needin' U
TTITLE7=Freemasons - Love On My Mind 
TTITLE8=Alena - Turn It Around 
TTITLE9=3 Drives On A Vinyl - Greece 2000 
TTITLE10=Bon Garon - Freek U
TTITLE11=Jaydee - Plastic Dreams 
TTITLE12=Stonebridge Ft. Therese - Put 'em High 
TTITLE13=Lil' Love - Little Love 
TTITLE14=Dave Leatherman - Eple 
TTITLE15=The Lovefreekz - Shine
TTITLE16=Yves Larock Ft. Roland Richards - Zookey (Lift Your Leg Up)
TTITLE17=Banda Sonora - Guitarra G 
TTITLE18=The House Keepers - Go Down 
TTITLE19=Sonique - It Feels So Good 
EXTD=
EXTT0=
EXTT1=
EXTT2=
EXTT3=
EXTT4=
EXTT5=
EXTT6=
EXTT7=
EXTT8=
EXTT9=
EXTT10=
EXTT11=
EXTT12=
EXTT13=
EXTT14=
EXTT15=
EXTT16=
EXTT17=
EXTT18=
EXTT19=
PLAYORDER=
